<svg version="1.2" xmlns="http://www.w3.org/2000/svg" viewBox="0 0 1280 640" width="1280" height="640">
	<title>Flag_of_Australia_(converted)</title>
	<style>
		.s0 { fill: #012169 } 
		.s1 { fill: #e4002b } 
		.s2 { fill: #ffffff } 
	</style>
	<g id="Flag of Australia">
		<path id="Shape 1" fill-rule="evenodd" class="s0" d="m1280 0v640h-1280v-640z"/>
		<g id="UK Canton">
			<path class="s1" d="m349.4 0q0.4 0.2 0.7 0.5 0.2 0.2 0.2 0.4-0.1 0.1-0.1 0.2-0.2 0.2-0.2 0.4v127.7c0 0.4 0.3 0.6 0.6 0.6l289.3 0.3v59.9h-289.1c-0.5 0-0.8 0.4-0.8 0.8l-0.1 129.2h-59.9v-129.3c0-0.4-0.3-0.7-0.7-0.7h-287.3q-0.5 0-0.9 0.3-0.6 0.3-1.1-0.7v-59.1l0.4-0.6c0.1-0.1 0.4-0.2 0.5 0l0.2 0.2q0.1 0 0.2 0l288-0.2c0.3 0 0.6-0.3 0.6-0.7q0.2-60.6 0-120.9 0-0.5-0.3-4.1-0.3-2.7 0.8-4.2z"/>
			<path class="s2" d="m639.9 190v19.6c0 0.2-0.1 0.4-0.4 0.4h-133.3q-2.2 0-0.2 1l133 66.5c0.6 0.3 0.9 0.8 0.9 1.4l-0.1 18.6q-86.3-43.2-172.3-86.3-2.5-1.2-4-1.2-21.4 0-41.8 0-1.7 0-0.2 0.7 120.4 60.3 216.7 108.4 0.5 0.2 0.6 0.9h-81.2c-1 0-1.9-0.3-2.8-0.7l-184.2-92.1c-0.3-0.2-0.6 0-0.6 0.3v91.9c0 0.3-0.3 0.6-0.6 0.6h-19.5l0.1-129.2c0-0.4 0.3-0.8 0.8-0.8z"/>
			<path class="s1" d="m45.1 319.8l-44.7 0.2q0.5-1 1.8-1.4 1.7-0.6 2.1-0.7 107-53.6 214-107.1 1.5-0.8 4.5-0.7 0.6 0 40-0.1 0.4 0 0.7 0.1c0.2 0.1 0.2 0.3 0 0.4z"/>
			<path class="s1" d="m639.8 297.5q0.3 10.5 0.2 21.6 0 0.5-0.3 0.7-0.3 0.4-0.9 0.2-0.1-0.7-0.6-0.9-96.3-48.1-216.7-108.4-1.5-0.7 0.2-0.7 20.4 0 41.8 0 1.5 0 4 1.2 86 43.1 172.3 86.3z"/>
			<path class="s2" d="m290 320l-19.6-0.1c-0.2 0-0.3-0.2-0.3-0.4v-91.8c0-0.4-0.5-0.6-0.8-0.4l-184.2 92.1c-0.8 0.4-1.7 0.6-2.6 0.6l-37.4-0.2 218.4-109.3c0.2-0.1 0.2-0.3 0-0.4q-0.3-0.1-0.7-0.1-39.4 0.1-40.1 0.1-2.9-0.1-4.4 0.7-107 53.5-214 107.1-0.4 0.1-2.1 0.7-1.3 0.4-1.8 1.4l-0.4 0.3v-42.8q1 0.2 2.8-0.8 2-1.1 2-1.1 65.1-32.6 129.3-64.7 2-0.9-0.2-0.9h-133.9v-20.4q0.5 1 1.1 0.7 0.4-0.3 0.9-0.3h287.3c0.4 0 0.7 0.3 0.7 0.7z"/>
			<path class="s1" d="m638.8 0q0 1.1-2.3 1.6-1.6 0.4-2.5 0.9-16.4 8.1-19.6 9.9c-2.8 1.7-5.6 2.8-7.2 3.7q-2.5 1.5-5.6 3.1-52.1 26.1-180.1 90.1-1.5 0.7-4.2 0.7-17.4 0.1-39.9 0.1-2.4 0-0.2-1.1l218.2-109z"/>
			<path class="s2" d="m369.9 0l0.1 92c0 0.5 0.4 0.8 0.8 0.6q91-45.5 181.8-90.9c0.6-0.3 1.6-0.5 2.3-0.6q0.8-0.2 0.2-0.7-0.4-0.2-1-0.4h41.3l-218.3 109q-2.1 1.1 0.3 1.1 22.5 0 39.9-0.1 2.7 0 4.2-0.7 128-64 180.1-90.1 3.1-1.6 5.6-3.1c1.6-0.9 4.4-2.1 7.2-3.7q3.2-1.8 19.6-9.9 0.9-0.5 2.5-0.9 2.3-0.5 2.3-1.6h1.1l0.1 41.4c0 0.3-0.1 0.6-0.4 0.7l-133.6 66.8q-2.3 1.2 0.3 1.2h133.4q0.2 0 0.2 0.1v19.9l-289.3-0.3c-0.3 0-0.6-0.2-0.6-0.6v-127.7q0-0.2 0.2-0.4 0-0.1 0.1-0.2 0-0.2-0.2-0.4-0.3-0.3-0.7-0.5z"/>
			<path class="s2" d="m86.1 0l-1.3 0.7q-0.9 0.4 0.1 0.4c1 0.1 1.9 0.2 2.8 0.7q79.9 40 181.7 90.9c0.3 0.1 0.7-0.1 0.7-0.4l-0.1-92.3h20.4q-1.1 1.5-0.8 4.2 0.3 3.6 0.3 4.1 0.2 60.3 0 120.9c0 0.4-0.3 0.7-0.6 0.7l-288 0.2q-0.1 0-0.2-0.1l-0.2-0.1c-0.1-0.2-0.4-0.1-0.5 0l-0.4 0.6v-20.4q66.4-0.1 132.8-0.1 1.2 0 2-0.1 1.4-0.1 0.1-0.7l-134.9-67.3v-19.6q86.8 43.3 173.5 86.7 2.1 1.1 4.5 1.1 27.6 0 40.3-0.1 0.2 0 0.3 0c0.2-0.1 0.4-0.2 0.4-0.4 0-0.2-0.1-0.4-0.3-0.5q-1.7-0.5-3.6-1.5-177.6-89-209.8-104.8-0.6-0.4-1.2-0.9-0.3-0.3-0.8-0.4-1.5-0.4-2.7-1.5z"/>
			<path class="s1" d="m0.6 0q1.1 1.1 2.7 1.5 0.5 0.1 0.8 0.4 0.6 0.5 1.2 0.9 32.2 15.8 209.8 104.8 1.9 1 3.6 1.5c0.2 0.1 0.3 0.3 0.3 0.5 0 0.2-0.2 0.4-0.4 0.4q-0.1 0-0.4 0-12.6 0.1-40.2 0.1-2.4 0-4.5-1.1-86.7-43.4-173.5-86.7v-21.8q0.3-0.2 0.5-0.5 0.1 0 0.1 0z"/>
		</g>
		<g id="Southern Cross">
			<path class="s2" d="m800 300.6q-0.5 0-1.6 1.2-10.9 11.8-17.9 18.7c-0.1 0.1-0.3 0-0.3-0.1l3.8-26.9q0.1-0.9-0.8-1l-25.9-2.2q-1.9-0.2-0.3-1.2l22.5-13.3c0.4-0.2 0.5-0.7 0.3-1l-14.7-22.2q-0.8-1.2 0.5-0.7l24.9 9.5c0.4 0.1 0.8-0.1 0.9-0.4q4.1-12.7 8.2-25.5 0.1-0.3 0.4-0.3 0.3 0 0.4 0.3 4.1 12.8 8.2 25.5c0.1 0.4 0.5 0.5 0.9 0.4l24.9-9.4q1.3-0.5 0.5 0.6l-14.7 22.2c-0.2 0.3-0.1 0.8 0.2 1l22.5 13.4q1.7 1-0.3 1.1l-25.8 2.2q-0.9 0.1-0.8 1l3.7 26.9c0 0.1-0.1 0.2-0.2 0.1q-7.1-6.9-17.9-18.7-1.1-1.2-1.6-1.2z"/>
			<path class="s2" d="m960 61.7q0.3 0 0.4 0.3 4.1 12.8 8.2 25.6c0.1 0.3 0.5 0.5 0.9 0.4l25-9.5q1.3-0.5 0.5 0.7l-14.7 22.3c-0.3 0.3-0.2 0.8 0.2 1l22.6 13.3q1.7 1.1-0.3 1.2l-26 2.2q-0.9 0.1-0.8 1l3.8 27c0 0.1-0.2 0.2-0.3 0.1q-7-6.9-17.9-18.8-1.1-1.2-1.6-1.2-0.5 0-1.6 1.2-10.9 11.9-18 18.8c-0.1 0.1-0.3 0-0.3-0.1l3.8-27q0.2-0.9-0.8-1l-26-2.2q-1.9-0.2-0.2-1.2l22.6-13.3c0.3-0.3 0.4-0.7 0.2-1.1l-14.8-22.2q-0.8-1.2 0.5-0.7l25.1 9.5c0.3 0.1 0.7-0.1 0.8-0.4q4.2-12.8 8.3-25.6 0.1-0.3 0.4-0.3z"/>
			<path class="s2" d="m1031.2 337.1l17.1 1.3c0.4 0 0.5 0.4 0.3 0.6l-13.2 11.1q-0.1 0.2-0.1 0.4l4.1 16.7c0.1 0.3-0.3 0.6-0.6 0.4l-14.6-9c-0.1-0.1-0.3-0.1-0.4 0l-14.6 9c-0.3 0.2-0.7-0.1-0.6-0.4l4.1-16.7q0-0.2-0.1-0.4l-13.2-11.1c-0.2-0.2-0.1-0.6 0.3-0.7l17.1-1.2q0.2 0 0.3-0.3l6.5-15.9c0.2-0.3 0.6-0.3 0.7 0l6.6 15.9q0.1 0.3 0.3 0.3z"/>
			<path class="s2" d="m1102.2 257.9q-0.5 0-1.6 1.3-10.9 11.7-17.9 18.7c-0.2 0.1-0.3 0-0.3-0.1l3.8-27q0.1-0.9-0.8-1l-25.9-2.2q-2-0.1-0.3-1.1l22.5-13.4c0.4-0.2 0.5-0.6 0.2-1l-14.7-22.2q-0.7-1.2 0.5-0.7l25 9.5c0.4 0.1 0.8 0 0.9-0.4q4.1-12.7 8.2-25.6 0.1-0.2 0.4-0.2 0.3 0 0.4 0.2 4.1 12.9 8.2 25.6c0.1 0.4 0.5 0.6 0.9 0.4l25-9.4q1.2-0.5 0.5 0.6l-14.8 22.2c-0.2 0.4-0.1 0.8 0.3 1.1l22.5 13.3q1.7 1-0.3 1.2l-25.9 2.1q-0.9 0.1-0.8 1l3.7 27c0.1 0.1-0.1 0.2-0.2 0.1q-7.1-6.9-17.9-18.8-1.1-1.2-1.6-1.2z"/>
			<path class="s2" d="m960 553.9q-0.5 0-1.6 1.2-10.9 11.8-17.9 18.8c-0.1 0.1-0.3 0-0.3-0.2l3.8-26.9q0.1-0.9-0.8-1l-25.9-2.2q-2-0.1-0.3-1.1l22.5-13.4c0.4-0.2 0.5-0.6 0.3-1l-14.8-22.2q-0.7-1.1 0.6-0.6l24.9 9.4c0.4 0.2 0.8 0 0.9-0.4q4.1-12.7 8.2-25.5 0.1-0.3 0.4-0.3 0.3 0 0.4 0.3 4.1 12.8 8.2 25.5c0.1 0.4 0.5 0.6 0.9 0.5l24.9-9.5q1.3-0.5 0.6 0.7l-14.8 22.2c-0.2 0.3-0.1 0.8 0.2 1l22.5 13.3q1.7 1-0.3 1.2l-25.8 2.2q-0.9 0-0.8 0.9l3.7 27c0 0.1-0.2 0.2-0.2 0.1q-7.1-7-17.9-18.8-1.1-1.2-1.6-1.2z"/>
		</g>
		<path class="s2" d="m320 384.7q0.1 0 0.2 0.1 0 0 0.1 0.1 12.4 38.6 18.1 56.1 0.1 0.2 0.2 0.3 0.2 0 0.4 0 17.2-6.5 55.1-20.8 0.1-0.1 0.2 0 0.1 0 0.1 0.1 0.1 0 0.1 0.2 0 0-0.1 0.1-22.3 33.8-32.5 49.1-0.1 0.2-0.1 0.4 0.1 0.2 0.3 0.3 15.8 9.4 50.6 30.1 0.1 0.1 0.1 0.1 0 0.1 0 0.2 0 0.1-0.1 0.2 0 0-0.1 0-40.4 3.6-58.7 5.2-0.2 0.1-0.3 0.2-0.2 0.1-0.1 0.3 2.5 18.2 7.9 58.4 0.1 0.1 0 0.2 0 0.1-0.1 0.1-0.1 0-0.2 0-0.1 0-0.1-0.1-28-29.3-40.7-42.6-0.1-0.1-0.3-0.1-0.2 0-0.3 0.1-12.7 13.3-40.7 42.6-0.1 0.1-0.1 0.1-0.1 0-0.2 0-0.1 0-0.1-0.1-0.1-0.1-0.1-0.2 5.5-40.2 8-58.4 0-0.2-0.1-0.3-0.1-0.1-0.3-0.2-18.3-1.6-58.7-5.2-0.1 0-0.1 0-0.1-0.1-0.1-0.2 0-0.1 0-0.2 0-0.1 0.1-0.1 34.8-20.7 50.6-30.2 0.2 0 0.2-0.2 0.1-0.2 0-0.4-10.2-15.3-32.5-49.1-0.1-0.1-0.1-0.2 0-0.1 0.1-0.1 0-0.1 0.1-0.1 0.1-0.1 0.2 0 37.9 14.3 55.1 20.8 0.2 0 0.4 0 0.1-0.1 0.2-0.3 5.6-17.5 18.1-56.1 0-0.1 0.1-0.1 0.1-0.1 0.2-0.1z"/>
	</g>
</svg>